<?xml version="1.0" encoding="UTF-8" standalone="no"?>
<!-- Generator: Adobe Illustrator 23.0.3, SVG Export Plug-In . SVG Version: 6.00 Build 0)  -->

<svg
   version="1.1"
   id="Calque_1"
   x="0px"
   y="0px"
   width="196.9px"
   height="56.5px"
   viewBox="0 0 196.9 56.5"
   style="enable-background:new 0 0 196.9 56.5;"
   xml:space="preserve"
   sodipodi:docname="logo-teritorio.svg"
   inkscape:version="1.4.2 (ebf0e940d0, 2025-05-08)"
   xmlns:inkscape="http://www.inkscape.org/namespaces/inkscape"
   xmlns:sodipodi="http://sodipodi.sourceforge.net/DTD/sodipodi-0.dtd"
   xmlns="http://www.w3.org/2000/svg"
   xmlns:svg="http://www.w3.org/2000/svg"><defs
   id="defs1">
	
	
	
	
</defs><sodipodi:namedview
   id="namedview1"
   pagecolor="#ffffff"
   bordercolor="#cccccc"
   borderopacity="1"
   inkscape:showpageshadow="0"
   inkscape:pageopacity="1"
   inkscape:pagecheckerboard="0"
   inkscape:deskcolor="#d1d1d1"
   inkscape:zoom="5.4989686"
   inkscape:cx="79.833153"
   inkscape:cy="7.1831653"
   inkscape:window-width="1882"
   inkscape:window-height="1061"
   inkscape:window-x="0"
   inkscape:window-y="0"
   inkscape:window-maximized="1"
   inkscape:current-layer="Calque_1" />
<style
   type="text/css"
   id="style1">
	.st0{fill:#1C70B8;}
	.st1{fill:#FFFFFF;}
</style>
<path
   id="Tracé_931"
   class="st0"
   d="m 39.2,0 h -8.6 l -15,53.5 h 14.3 v -38 H 42.1 L 46,6.1 48.5,0 Z" /><path
   id="Tracé_932"
   class="st1"
   d="m 0,4.3 v 12 h 12.5 v 40.2 h 0.3 L 27.7,4.3 Z"
   style="fill:#000000" /><path
   id="Tracé_933"
   class="st1"
   d="M 35.2,53.6 V 28.7 h 18.5 v 5.9 h -11 v 3.6 h 9.9 v 5.4 h -9.9 v 4 h 11 v 5.9 z"
   style="fill:#000000" /><g
   id="Groupe_165"
   style="fill:#000000">
		<g
   id="g1"
   style="fill:#000000">
			<g
   id="Groupe_164"
   style="fill:#000000">
				<path
   id="Tracé_934"
   class="st1"
   d="m 66.7,34.7 h -2 v 5.5 h 2 c 2.7,0 3.3,-1 3.3,-2.7 0,-1.8 -0.7,-2.8 -3.3,-2.8 m 3.4,18.9 -5.4,-9.2 v 9.2 H 57.2 V 28.7 h 9.7 c 9.7,0 10.6,5.2 10.6,8.7 0,3.3 -1.6,6.3 -5.3,7 l 7.2,9.1 z"
   style="fill:#000000" />
				<rect
   id="Rectangle_194"
   x="81.199997"
   y="28.700001"
   class="st1"
   width="7.5"
   height="24.9"
   style="fill:#000000" />
				<path
   id="Tracé_935"
   class="st1"
   d="M 104.7,34.7 V 53.6 H 97.3 V 34.7 h -5.9 v -5.9 h 19.1 v 5.9 z"
   style="fill:#000000" />
				<path
   id="Tracé_936"
   class="st1"
   d="m 148.1,34.5 h -2 V 40 h 2 c 2.7,0 3.3,-1 3.3,-2.7 0,-1.8 -0.6,-2.8 -3.3,-2.8 m 3.3,19.2 -5.4,-9.2 v 9.2 h -7.5 V 28.9 h 9.7 c 9.7,0 10.6,5.2 10.6,8.7 0,3.3 -1.6,6.3 -5.3,7 l 7.2,9.1 z"
   style="fill:#000000" />
				<rect
   id="Rectangle_195"
   x="162.7"
   y="28.9"
   class="st1"
   width="7.5"
   height="24.9"
   style="fill:#000000" />
				<path
   id="Tracé_937"
   class="st1"
   d="m 123.6,34.1 c -4.2,0 -4.5,3.1 -4.5,6.8 0,3.7 0.3,6.8 4.5,6.8 4.3,0 4.5,-3.1 4.5,-6.8 0,-3.7 -0.2,-6.8 -4.5,-6.8 m 0,19.7 c -10.1,0 -12.1,-6.6 -12.1,-12.8 0,-6.2 1.9,-12.8 12.1,-12.8 10.1,0 12.1,6.6 12.1,12.9 0,6.1 -2,12.7 -12.1,12.7"
   style="fill:#000000" />
				<path
   id="Tracé_938"
   class="st1"
   d="m 184.8,34.1 c -4.2,0 -4.5,3.1 -4.5,6.8 0,3.7 0.3,6.8 4.5,6.8 4.3,0 4.5,-3.1 4.5,-6.8 0,-3.7 -0.3,-6.8 -4.5,-6.8 m 0,19.6 c -10.1,0 -12.1,-6.6 -12.1,-12.8 0,-6.2 1.9,-12.8 12.1,-12.8 10.1,0 12.1,6.6 12.1,12.9 0,6.2 -2,12.7 -12.1,12.7"
   style="fill:#000000" />
			</g>
		</g>
	</g>
</svg>
