<?xml version="1.0" encoding="UTF-8" standalone="yes"?>
<svg version="1.1" xmlns="http://www.w3.org/2000/svg" xmlns:xlink="http://www.w3.org/1999/xlink" xmlns:ev="http://www.w3.org/2001/xml-events" width="275" height="275" shape-rendering="crispEdges"><rect width="275" height="275" x="0" y="0" style="fill:white"/><path d="M0 0h7v7h-7zM8 0h4v1h1v-1h1v2h1v1h-1v1h1v1h-3v1h-1v-1h-1v-2h-1v-1h1v1h1v-2h-3zM18 0h7v7h-7zM1 1v5h5v-5zM16 1h1v1h-1zM19 1v5h5v-5zM2 2h3v3h-3zM12 2v1h1v-1zM20 2h3v3h-3zM16 3h1v8h-1v1h-1v-2h-1v-2h-1v-1h-1v-1h1v1h1v-1h1v1h-1v1h1v-1h1zM9 5h1v1h-1zM8 6h1v1h1v-1h1v1h-1v2h-1v-1h-1zM11 7h1v1h-1zM0 8h2v1h-2zM3 8h2v1h-1v1h1v-1h1v-1h1v1h-1v1h-1v1h-2zM12 8h1v1h-1zM15 8v1h1v-1zM18 8h1v1h-1zM24 8h1v1h-1zM7 9h1v1h-1zM10 9h2v2h1v2h-1v-1h-1v-2h-1zM20 9h4v1h-2v1h2v-1h1v3h-1v-1h-3v-2h-1zM0 10h2v1h1v1h-2v1h2v-1h2v-1h1v-1h1v1h-1v1h1v-1h2v-1h1v1h-1v1h-1v1h1v-1h2v1h1v1h-3v1h-1v-1h-1v-1h-2v1h-1v3h-1v-2h-2v2h-1zM19 10h1v1h-1zM17 11h1v1h-1zM16 12h1v3h-4v-2h3zM18 12h1v1h-1zM20 13h1v1h2v-1h1v1h1v2h-1v-1h-1v1h1v2h-2v-2h-1v-1h-1zM6 14h1v1h-1zM18 14h1v1h-1zM7 15h1v1h1v1h1v-2h1v3h-3v-1h-3v-1h2zM17 15h1v1h1v-1h1v1h1v5h-2v1h-1v1h2v-1h3v-2h1v-2h1v2h-1v1h1v4h-1v-1h-2v-1h-1v1h-2v1h-1v-1h-1v-3h-2v1h-1v-2h-1v1h-1v-2h-1v-1h1v1h2v1h1v-1h1v-1h-1v-1h-1v1h-1v-1h-1v-1h5zM17 17v3h3v-3zM0 18h7v7h-7zM18 18h1v1h-1zM1 19v5h5v-5zM9 19h1v2h2v1h1v3h-1v-2h-3v-1h-1v-2h1zM2 20h3v3h-3zM15 22h1v2h-1zM8 23h1v2h-1zM10 24h1v1h-1zM16 24h1v1h-1zM21 24h1v1h-1z" style="fill:black" transform="translate(0,0) scale(11)"/></svg>